<svg width="180" height="40" viewBox="0 0 180 40" fill="none" xmlns="http://www.w3.org/2000/svg">
<path fill-rule="evenodd" clip-rule="evenodd" d="M109.368 19.625C109.239 19.625 109.109 19.6097 108.979 19.5791C108.85 19.5486 108.751 19.5202 108.684 19.4941L108.302 19.0948L108.134 19.553H107.94V14.7028H108.389V16.5355C108.505 16.4221 108.651 16.3162 108.825 16.2181C109 16.1199 109.214 16.0708 109.469 16.0708C109.894 16.0708 110.229 16.2093 110.475 16.4864C110.721 16.7635 110.844 17.201 110.844 17.7988C110.844 18.4315 110.715 18.8941 110.455 19.1864C110.196 19.4788 109.834 19.625 109.368 19.625ZM109.315 19.2977C109.494 19.2977 109.65 19.2748 109.784 19.229C109.919 19.1831 110.029 19.1046 110.116 18.9933C110.204 18.8821 110.27 18.7337 110.314 18.5482C110.359 18.3628 110.381 18.1282 110.381 17.8446V17.7791C110.381 17.4911 110.358 17.2588 110.311 17.0821C110.264 16.9053 110.197 16.769 110.11 16.673C110.022 16.577 109.92 16.5126 109.801 16.4799C109.683 16.4471 109.552 16.4308 109.409 16.4308C109.275 16.4308 109.155 16.4439 109.05 16.4701C108.945 16.4962 108.851 16.529 108.768 16.5682C108.685 16.6075 108.614 16.6511 108.553 16.6991C108.493 16.7471 108.438 16.7908 108.389 16.8301V18.9573C108.532 19.0664 108.674 19.1504 108.815 19.2093C108.956 19.2682 109.122 19.2977 109.315 19.2977ZM112.528 19.4548L111.24 16.1362H111.716L112.602 18.5057L112.776 19.2519L112.944 18.5057L113.836 16.1362H114.285L112.521 20.7246H112.072L112.528 19.4548Z" fill="#35334E"/>
<path fill-rule="evenodd" clip-rule="evenodd" d="M162.058 27.6873C162.47 27.5644 162.741 27.7215 162.884 28.1615C162.953 28.3738 162.924 28.5876 162.798 28.8182C162.673 29.0444 162.456 29.208 162.12 29.3098C161.829 29.4015 161.509 29.4015 161.165 29.328C161.33 29.6684 161.467 30.1535 161.467 30.7207C161.467 32.6851 159.921 33.2771 158.261 33.5273C156.577 33.7782 156.146 33.9804 156.146 34.4902C156.146 34.8364 156.37 35.0407 157.535 35.0407C159.955 35.152 161.031 35.024 161.789 36.0356C162.023 36.3549 162.144 36.792 162.144 37.3251C162.144 37.7215 162.036 38.1316 161.808 38.5345C161.592 38.9345 161.187 39.2836 160.607 39.5658C160.028 39.8516 159.216 40 158.219 40C157.464 40 156.922 39.9411 156.102 39.6989C155.565 39.5462 154.862 39.1316 154.862 38.2495C154.862 37.9825 154.905 37.7578 155.031 37.5702C155.165 37.3687 155.452 37.2487 155.682 37.2851C156.097 37.3542 156.227 37.7215 156.151 38.0705C156.066 38.4145 156.144 38.8931 156.55 39.1382C157.096 39.4684 157.702 39.5462 158.443 39.5462C159.305 39.5462 160 39.4015 160.508 39.128C161.054 38.8305 161.327 38.4305 161.327 37.9353C161.327 37.5702 161.195 37.2931 160.944 37.1055C160.7 36.9324 160.371 36.8182 159.955 36.7709C159.57 36.7265 158.978 36.6982 158.143 36.6895C157.189 36.6735 156.43 36.5615 155.889 36.3491C155.399 36.1556 155.016 35.8007 155.016 35.152C155.016 34.0778 156.048 33.7476 157.211 33.5193C157.285 33.5033 157.285 33.4138 157.201 33.3971C155.836 33.1178 155.215 32.3593 155.215 30.7935C155.215 29.4545 156.151 27.9862 158.272 27.9862C159.589 27.9862 160.339 28.4145 160.728 28.7673C160.938 28.8364 161.114 28.8487 161.271 28.8036C161.428 28.7549 161.547 28.5796 161.606 28.2778C161.685 27.9498 161.834 27.7564 162.058 27.6873ZM143.326 27.9862C145.41 27.9862 146.945 29.3607 146.945 31.8887C146.945 35.1338 144.544 35.9004 143.276 35.9004C142.636 35.9004 139.672 35.656 139.672 31.9578C139.672 29.432 141.081 27.9862 143.326 27.9862ZM113.241 34.2124C113.49 34.2124 113.692 34.288 113.86 34.4509C114.029 34.6124 114.113 34.808 114.113 35.0465C114.113 35.2836 114.029 35.4742 113.86 35.6313C113.686 35.7942 113.483 35.872 113.241 35.872C113.003 35.872 112.8 35.7942 112.63 35.6313C112.458 35.4742 112.373 35.2836 112.373 35.0465C112.373 34.8102 112.457 34.6167 112.627 34.4509C112.793 34.288 112.996 34.2124 113.241 34.2124ZM123.024 34.2124C123.271 34.2124 123.477 34.288 123.648 34.4509C123.817 34.6124 123.901 34.808 123.901 35.0465C123.901 35.2836 123.817 35.4742 123.647 35.6313C123.475 35.7942 123.269 35.872 123.024 35.872C122.787 35.872 122.588 35.7942 122.411 35.6313C122.242 35.4742 122.162 35.2836 122.162 35.0465C122.162 34.8102 122.242 34.6167 122.411 34.4509C122.578 34.288 122.782 34.2124 123.024 34.2124ZM112.649 25.208V25.5731L111.2 25.5709V32.4815C111.2 35.0771 109.926 35.8604 107.541 35.8604C105.541 35.8604 105.093 35.1113 105.093 34.1331C105.093 33.9156 105.179 33.1971 105.91 33.1971C106.639 33.1971 106.684 33.672 106.684 34.4465C106.684 34.7731 106.824 35.4036 107.68 35.4036C108.989 35.4036 109.602 34.8457 109.644 32.8926L109.647 32.6698V25.5731H108.243V25.208H112.649ZM166.679 27.9862C167.803 27.9862 168.58 28.1898 168.98 28.5862C169.352 28.9459 169.478 29.3506 169.497 29.9266L169.5 30.1047V33.216L169.528 34.1651C169.562 34.5862 169.711 34.8364 170.177 34.8364C170.427 34.8364 170.726 34.6044 170.83 34.1666L170.855 34.0291H171.115C171.045 35.2356 170.438 35.7193 169.425 35.7193C168.523 35.7193 168.027 35.1004 167.941 34.5818C167.41 35.1287 166.626 35.8131 165.389 35.8131C164.27 35.8131 163.404 34.9753 163.349 34.0204C163.205 31.6506 166.322 31.3435 167.776 31.2161L167.894 31.2058V29.96C167.894 29.5069 167.789 29.1425 167.589 28.8749C167.374 28.5898 166.986 28.4473 166.44 28.4473C165.971 28.4473 165.623 28.5593 165.401 28.7855C165.192 28.9993 165.1 29.2342 165.034 29.6436C164.944 30.1964 164.7 30.4102 164.267 30.4102C164.079 30.4102 163.924 30.36 163.792 30.2451C163.661 30.1389 163.6 29.9804 163.6 29.7542C163.6 29.2669 163.792 28.9258 164.291 28.5593C164.8 28.1804 165.601 27.9862 166.679 27.9862ZM119.955 25.208C123.333 25.208 123.908 26.4436 123.908 28.2065C123.908 29.9035 123.022 31.1592 119.907 31.2276L119.634 31.2305L118.484 31.2342V34.0073C118.484 34.3265 118.524 34.4873 118.6 34.6698C118.688 34.8815 118.869 35.0385 119.146 35.144C119.309 35.2004 119.545 35.2396 119.847 35.2565L120.036 35.264V35.5971H115.393V35.2625C115.785 35.2509 116.081 35.2095 116.277 35.1287C116.539 35.024 116.716 34.8611 116.795 34.6545C116.861 34.4879 116.901 34.3363 116.907 33.831L116.908 33.6684V25.5731H115.641V25.208H119.955ZM129.05 25.232C129.09 25.328 132.534 33.1462 132.534 33.1462C132.545 33.1745 132.575 33.1935 132.612 33.1935C132.642 33.1935 132.671 33.1745 132.685 33.1462C132.685 33.1462 135.775 25.6716 135.948 25.2497L135.956 25.232H138.693C138.693 25.232 138.681 25.5622 138.693 25.5622C138.706 25.5662 137.742 25.5721 137.594 25.573L137.575 25.5731V33.9215C137.575 34.2124 137.605 34.4407 137.666 34.6284C137.735 34.8429 137.893 35.0095 138.138 35.1258C138.279 35.1863 138.474 35.2273 138.718 35.2494L138.911 35.2625V35.5971H134.703V35.2625C135.042 35.2487 135.302 35.2051 135.47 35.1324C135.698 35.024 135.856 34.8611 135.928 34.6473C135.977 34.5007 136.007 34.3201 136.018 34.0969L136.021 33.9215V26.7593H135.928L132.238 35.5971H131.912C131.872 35.5009 128.13 27.0182 127.977 26.672L127.972 26.6611H127.794V33.6073L127.829 34.3389C127.85 34.5404 127.914 34.7098 128.012 34.8531C128.123 35.0058 128.288 35.1113 128.51 35.1825C128.63 35.2221 128.725 35.2454 128.889 35.2583L129.027 35.2662V35.5971H126.012V35.2625C126.278 35.256 126.49 35.2262 126.634 35.1789C126.852 35.1062 127.019 34.9913 127.122 34.8429C127.218 34.704 127.281 34.5324 127.302 34.3389C127.302 34.337 127.325 33.7604 127.33 33.6323L127.331 33.6073V25.5665H126.012V25.232H129.05ZM152.821 28.1004C154.49 28.1004 154.58 29.5949 154.043 29.8807C153.053 30.4065 153.075 29.1018 152.203 29.1018C151.408 29.1018 150.741 30.0234 150.676 30.8862L150.671 31.0218V33.6844C150.671 34.2124 150.733 34.5709 150.871 34.7833C151.009 34.9999 151.222 35.1188 151.681 35.1404L151.843 35.144H152.078V35.5971H147.721V35.144H147.949C148.482 35.144 148.804 35.016 148.949 34.7629C149.048 34.5758 149.104 34.2807 149.117 33.8683L149.12 33.6844L149.12 29.9308C149.121 29.504 149.126 28.8149 149.128 28.613L149.128 28.5556H147.721V28.168L147.836 28.1683C148.201 28.1693 149.349 28.1724 149.993 28.1735L150.321 28.1738C150.39 28.5105 150.571 29.656 150.583 29.6516C150.592 29.6487 150.688 29.656 150.688 29.656C151.059 28.8713 151.478 28.1004 152.821 28.1004ZM176.661 28.0742C177.087 28.0742 177.475 28.1556 177.812 28.3207C178.144 28.4858 178.412 28.7389 178.601 29.0713C178.763 29.363 178.836 29.7119 178.853 30.1111L178.858 30.3149L178.837 33.6815C178.837 34.2124 178.96 34.5709 179.109 34.7833C179.225 34.9653 179.469 35.0715 179.835 35.1143L180 35.1287V35.5971H176.371V35.1215C176.637 35.1018 176.843 35.0567 176.975 34.9687C177.156 34.8531 177.26 34.6778 177.303 34.4553C177.332 34.2895 177.297 34.0467 177.287 33.7252L177.284 33.5578L177.303 31.1287C177.303 30.5389 177.202 29.6822 177.048 29.3949C176.859 29.0429 176.557 28.8633 175.985 28.8633C175.346 28.8633 174.777 29.1593 174.465 29.6931C174.204 30.1374 174.183 30.8335 174.181 31.5739L174.181 33.7578C174.181 34.2618 174.249 34.6087 174.396 34.808C174.512 34.9688 174.717 35.065 175.012 35.1084L175.166 35.1258V35.5971H171.401V35.1287C171.688 35.1156 171.913 35.0829 172.057 35.024C172.28 34.9324 172.431 34.7745 172.494 34.5491C172.544 34.3909 172.575 34.1666 172.585 33.8664L172.587 33.6771V28.5695L172.538 28.5689C172.382 28.5669 171.88 28.5601 171.508 28.5473L171.401 28.5433V28.1556L173.769 28.1593L174.042 29.5091L174.181 29.5156C174.517 28.9818 175.13 28.0742 176.661 28.0742ZM143.297 28.4473C141.478 28.4473 141.348 29.9702 141.348 31.9985C141.348 34.6218 141.609 35.4415 143.297 35.4415C144.804 35.4415 145.271 34.5273 145.271 31.8705L145.27 31.5167C145.262 29.8265 145.134 28.4473 143.297 28.4473ZM167.894 31.6618C166.825 31.6618 164.873 32.3535 164.873 33.736C164.873 34.1673 165.034 35.032 166.101 35.032C166.486 35.032 167.002 34.8325 167.666 34.2835L167.835 34.1389L167.867 34.1105C167.883 34.0999 167.889 34.0889 167.892 34.0748L167.894 34.0509V31.6618ZM158.313 28.384C157.252 28.384 156.755 29.4116 156.755 30.7935C156.755 32.7513 157.322 33.0996 158.313 33.0996C159.24 33.0996 159.909 32.8284 159.909 30.7651C159.909 29.32 159.548 28.384 158.313 28.384ZM119.282 25.6095L118.484 25.6196V30.8327H119.365C121.406 30.8327 122.418 29.9782 122.418 28.3018C122.418 26.6371 121.857 25.6095 119.282 25.6095Z" fill="black"/>
<path fill-rule="evenodd" clip-rule="evenodd" d="M9.57019 29.8473C8.43726 29.8473 7.4087 29.7964 6.48447 29.6945C5.56024 29.5927 4.71802 29.4473 3.95776 29.2582C3.19751 29.0691 2.4969 28.8509 1.8559 28.6036C1.2149 28.3564 0.596276 28.1018 0 27.84L1.07329 24.5673C2.32547 25.0618 3.56273 25.4836 4.78509 25.8327C6.00746 26.1818 7.45341 26.3564 9.12298 26.3564C11.359 26.3564 12.9988 26.0436 14.0422 25.4182C15.0857 24.7927 15.6075 23.5782 15.6075 21.7745C15.6075 21.0764 15.5329 20.4873 15.3839 20.0073C15.2348 19.5273 14.9516 19.1055 14.5342 18.7418C14.1168 18.3782 13.513 18.0655 12.723 17.8036C11.9329 17.5418 10.9118 17.2945 9.65963 17.0618C8.01987 16.7709 6.59628 16.4218 5.38882 16.0145C4.18136 15.6073 3.18261 15.0836 2.39255 14.4436C1.60248 13.8036 1.01367 12.9964 0.626087 12.0218C0.238507 11.0473 0.0447205 9.84728 0.0447205 8.42182C0.0447205 5.83271 0.901855 3.83273 2.61615 2.42182C4.33044 1.0109 6.85713 0.305455 10.1963 0.305455C12.0745 0.305455 13.6621 0.45818 14.959 0.763636C16.2559 1.06909 17.441 1.45454 18.5143 1.92L17.754 5.32364C17.0981 5.12 16.4944 4.93818 15.9429 4.77818C15.3913 4.61818 14.8248 4.48 14.2435 4.36364C13.6621 4.24727 13.0435 4.16 12.3876 4.10182C11.7317 4.04364 10.9863 4.01455 10.1516 4.01455C8.12421 4.01455 6.66336 4.29818 5.76894 4.86545C4.87453 5.43273 4.42733 6.48727 4.42733 8.02909C4.42733 8.75637 4.49441 9.35273 4.62857 9.81818C4.76273 10.2836 5.05341 10.6836 5.50062 11.0182C5.94783 11.3527 6.58136 11.6364 7.40124 11.8691C8.22112 12.1018 9.31676 12.3491 10.6882 12.6109C12.1789 12.8727 13.513 13.2073 14.6907 13.6145C15.8683 14.0218 16.8596 14.56 17.6646 15.2291C18.4696 15.8982 19.0882 16.7273 19.5205 17.7164C19.9528 18.7055 20.1689 19.9127 20.1689 21.3382C20.1689 24.1018 19.2969 26.2109 17.5528 27.6655C15.8087 29.12 13.1478 29.8473 9.57019 29.8473ZM25.4907 29.2518V9.51273H22.2708V6.41455H25.8037L27.5478 0H30.1416V6.41455H35.3739V9.51273H30.1416V29.2518H25.4907ZM49.3267 29.8473C47.687 29.8473 46.1888 29.5855 44.8323 29.0618C43.4758 28.5382 42.313 27.7673 41.3441 26.7491C40.3752 25.7309 39.6298 24.48 39.1081 22.9964C38.5863 21.5127 38.3255 19.8109 38.3255 17.8909C38.3255 15.9418 38.5938 14.2182 39.1304 12.72C39.6671 11.2218 40.4199 9.97091 41.3888 8.96727C42.3578 7.96363 43.5205 7.20727 44.877 6.69818C46.2335 6.18909 47.7168 5.93455 49.3267 5.93455C50.9367 5.93455 52.4124 6.18909 53.754 6.69818C55.0956 7.20727 56.2509 7.96363 57.2199 8.96727C58.1888 9.97091 58.9416 11.2073 59.4783 12.6764C60.0149 14.1455 60.2832 15.84 60.2832 17.76C60.2832 19.7091 60.0224 21.4327 59.5006 22.9309C58.9789 24.4291 58.2335 25.6945 57.2646 26.7273C56.2956 27.76 55.1404 28.5382 53.7988 29.0618C52.4571 29.5855 50.9665 29.8473 49.3267 29.8473ZM49.3267 26.6182C50.2211 26.6182 51.0484 26.4873 51.8087 26.2255C52.569 25.9636 53.2174 25.5055 53.754 24.8509C54.2907 24.1964 54.7081 23.3309 55.0062 22.2545C55.3043 21.1782 55.4534 19.84 55.4534 18.24V17.4982C55.4534 15.84 55.3118 14.48 55.0286 13.4182C54.7453 12.3564 54.3429 11.52 53.8211 10.9091C53.2994 10.2982 52.6584 9.87636 51.8981 9.64364C51.1379 9.41091 50.2808 9.29455 49.3267 9.29455C48.3429 9.29455 47.4634 9.41091 46.6882 9.64364C45.913 9.87636 45.2646 10.2982 44.7429 10.9091C44.2211 11.52 43.8186 12.3418 43.5354 13.3745C43.2522 14.4073 43.1106 15.7236 43.1106 17.3236V18.0655C43.1106 19.7236 43.2596 21.0982 43.5578 22.1891C43.8559 23.28 44.2807 24.1527 44.8323 24.8073C45.3839 25.4618 46.0397 25.9273 46.8 26.2036C47.5603 26.48 48.4025 26.6182 49.3267 26.6182ZM72 7.02545C72.5068 6.76363 73.1329 6.53818 73.8783 6.34909C74.6236 6.16 75.3838 6.06545 76.159 6.06545C76.8447 6.06545 77.4186 6.10182 77.8807 6.17455C78.3429 6.24727 78.7379 6.34182 79.0658 6.45818L78.3503 10.4291C77.9329 10.3127 77.4708 10.2182 76.964 10.1455C76.4571 10.0727 75.8609 10.0364 75.1752 10.0364C74.1019 10.0364 73.1329 10.1964 72.2683 10.5164C71.4037 10.8364 70.5689 11.2582 69.764 11.7818V29.2364H65.113V6.41455H67.9752L69.6298 10.3418L72 7.02545ZM91.511 28.6766L82.6882 6.41455H87.518L92.6609 20.5091L93.8236 26.4873L94.9416 20.5091L100.084 6.41455H104.601L92.8398 37.1782H88.2335L91.511 28.6766Z" fill="#35334E"/>
<path fill-rule="evenodd" clip-rule="evenodd" d="M100.084 6.41455H104.601L92.8398 37.1782H88.2335L100.084 6.41455Z" fill="#7ABAC5"/>
</svg>
